<svg width="352" height="352" viewBox="0 0 352 352" fill="none" xmlns="http://www.w3.org/2000/svg">
<g clip-path="url(#clip0_63_402)">
<path d="M180.011 0H171.978V352H180.011V0Z" fill="#00AFC2"/>
<path d="M352 171.978H0V180.011H352V171.978Z" fill="#00AFC2"/>
<path d="M297.606 48.6871L48.7041 297.589L54.3844 303.269L303.286 54.3674L297.606 48.6871Z" fill="#00AFC2"/>
<path d="M54.3844 48.7073L48.7041 54.3876L297.606 303.289L303.286 297.609L54.3844 48.7073Z" fill="#00AFC2"/>
<path d="M134.327 4.9616L126.568 7.04073L217.672 347.047L225.432 344.967L134.327 4.9616Z" fill="#00AFC2"/>
<path d="M344.957 126.533L4.96686 217.697L7.04734 225.456L347.037 134.292L344.957 126.533Z" fill="#00AFC2"/>
<path d="M260.518 21.5609L84.5179 326.402L91.4748 330.418L267.475 25.5775L260.518 21.5609Z" fill="#00AFC2"/>
<path d="M25.5863 84.5312L21.5698 91.488L326.411 267.488L330.427 260.531L25.5863 84.5312Z" fill="#00AFC2"/>
<path d="M91.4748 21.5698L84.5179 25.5863L260.518 330.427L267.475 326.411L91.4748 21.5698Z" fill="#00AFC2"/>
<path d="M326.411 84.512L21.5698 260.512L25.5863 267.469L330.427 91.4688L326.411 84.512Z" fill="#00AFC2"/>
<path d="M217.672 4.95334L126.568 344.959L134.327 347.038L225.432 7.03247L217.672 4.95334Z" fill="#00AFC2"/>
<path d="M7.04067 126.571L4.96155 134.331L344.967 225.435L347.047 217.676L7.04067 126.571Z" fill="#00AFC2"/>
</g>
<defs>
<clipPath id="clip0_63_402">
<rect width="352" height="352" fill="white"/>
</clipPath>
</defs>
</svg>
